<svg width="941" height="180" viewBox="0 0 941 180" fill="none" xmlns="http://www.w3.org/2000/svg">
<path d="M0 40.3477V0H8.75349V5.76395H13.1302V11.5279H17.507V17.2919H21.8837V0H30.6372V40.3477H21.8837V28.8198H17.507V23.0558H13.1302V17.2919H8.75349V40.3477H0Z" fill="white"/>
<path d="M39.3907 40.3477V34.5837H35.014V28.8198H39.3907V23.0558H56.8977V17.2919H39.3907V11.5279H61.2744V17.2919H65.6512V40.3477H39.3907ZM43.7674 34.5837H56.8977V28.8198H43.7674V34.5837Z" fill="white"/>
<path d="M122.549 5.76395V0H131.302V5.76395H122.549ZM109.419 46.1116V40.3477H122.549V17.2919H118.172V11.5279H131.302V40.3477H126.926V46.1116H109.419Z" fill="white"/>
<path d="M144.433 40.3477V34.5837H140.056V17.2919H144.433V11.5279H166.316V17.2919H170.693V34.5837H166.316V40.3477H144.433ZM148.809 34.5837H161.94V17.2919H148.809V34.5837Z" fill="white"/>
<path d="M188.2 17.2919H192.577V23.0558H188.2V40.3477H179.447V11.5279H188.2V17.2919ZM205.707 11.5279V17.2919H192.577V11.5279H205.707Z" fill="white"/>
<path d="M210.084 40.3477V11.5279H236.344V17.2919H240.721V40.3477H231.967V17.2919H218.837V40.3477H210.084Z" fill="white"/>
<path d="M249.474 40.3477V34.5837H245.098V28.8198H249.474V23.0558H266.981V17.2919H249.474V11.5279H271.358V17.2919H275.735V40.3477H249.474ZM253.851 34.5837H266.981V28.8198H253.851V34.5837Z" fill="white"/>
<path d="M284.488 40.3477V34.5837H280.112V17.2919H284.488V11.5279H301.995V0H310.749V40.3477H284.488ZM288.865 34.5837H301.995V17.2919H288.865V34.5837Z" fill="white"/>
<path d="M319.502 40.3477V34.5837H315.126V28.8198H319.502V23.0558H337.009V17.2919H319.502V11.5279H341.386V17.2919H345.763V40.3477H319.502ZM323.879 34.5837H337.009V28.8198H323.879V34.5837Z" fill="white"/>
<path d="M389.53 40.3477V34.5837H385.154V17.2919H389.53V11.5279H407.037V0H415.791V40.3477H389.53ZM393.907 34.5837H407.037V17.2919H393.907V34.5837Z" fill="white"/>
<path d="M424.544 40.3477V34.5837H420.167V28.8198H424.544V23.0558H442.051V17.2919H424.544V11.5279H446.428V17.2919H450.805V40.3477H424.544ZM428.921 34.5837H442.051V28.8198H428.921V34.5837Z" fill="white"/>
<path d="M494.572 40.3477V34.5837H490.195V17.2919H494.572V11.5279H520.833V17.2919H498.949V34.5837H520.833V40.3477H494.572Z" fill="white"/>
<path d="M538.34 5.76395V0H547.093V5.76395H538.34ZM529.586 40.3477V34.5837H538.34V17.2919H533.963V11.5279H547.093V34.5837H555.847V40.3477H529.586Z" fill="white"/>
<path d="M564.6 40.3477V34.5837H560.223V17.2919H564.6V5.76395H568.977V0H582.107V5.76395H586.484V17.2919H590.861V28.8198H568.977V34.5837H586.484V40.3477H564.6ZM573.354 11.5279H577.73V5.76395H573.354V11.5279ZM568.977 23.0558H582.107V17.2919H568.977V23.0558Z" fill="white"/>
<path d="M595.237 40.3477V11.5279H621.498V17.2919H625.874V40.3477H617.121V17.2919H603.991V40.3477H595.237Z" fill="white"/>
<path d="M634.628 40.3477V34.5837H630.251V17.2919H634.628V11.5279H660.888V17.2919H639.005V34.5837H660.888V40.3477H634.628Z" fill="white"/>
<path d="M678.395 5.76395V0H687.149V5.76395H678.395ZM669.642 40.3477V34.5837H678.395V17.2919H674.019V11.5279H687.149V34.5837H695.902V40.3477H669.642Z" fill="white"/>
<path d="M704.656 40.3477V34.5837H700.279V28.8198H704.656V23.0558H722.163V17.2919H704.656V11.5279H726.54V17.2919H730.916V40.3477H704.656ZM709.033 34.5837H722.163V28.8198H709.033V34.5837Z" fill="white"/>
<path d="M739.67 46.1116V40.3477H744.047V28.8198H752.8V40.3477H748.423V46.1116H739.67Z" fill="white"/>
<path d="M809.698 40.3477V34.5837H805.321V17.2919H809.698V11.5279H835.958V17.2919H814.075V34.5837H835.958V40.3477H809.698Z" fill="white"/>
<path d="M844.712 40.3477V34.5837H840.335V28.8198H844.712V23.0558H862.219V17.2919H844.712V11.5279H866.595V17.2919H870.972V40.3477H844.712ZM849.088 34.5837H862.219V28.8198H849.088V34.5837Z" fill="white"/>
<path d="M879.726 40.3477V34.5837H875.349V17.2919H879.726V11.5279H897.233V0H905.986V40.3477H879.726ZM884.102 34.5837H897.233V17.2919H884.102V34.5837Z" fill="white"/>
<path d="M914.74 40.3477V34.5837H910.363V28.8198H914.74V23.0558H932.247V17.2919H914.74V11.5279H936.623V17.2919H941V40.3477H914.74ZM919.116 34.5837H932.247V28.8198H919.116V34.5837Z" fill="white"/>
<path d="M4.37674 110.174V104.41H0V87.118H4.37674V81.3541H21.8837V69.8262H30.6372V110.174H4.37674ZM8.75349 104.41H21.8837V87.118H8.75349V104.41Z" fill="white"/>
<path d="M39.3907 110.174V104.41H35.014V87.118H39.3907V81.3541H61.2744V87.118H65.6512V98.6459H43.7674V104.41H61.2744V110.174H39.3907ZM43.7674 92.882H56.8977V87.118H43.7674V92.882Z" fill="white"/>
<path d="M70.0279 110.174V104.41H91.9116V98.6459H74.4047V92.882H70.0279V87.118H74.4047V81.3541H96.2884V87.118H78.7814V92.882H96.2884V98.6459H100.665V104.41H96.2884V110.174H70.0279Z" fill="white"/>
<path d="M109.419 110.174V104.41H105.042V87.118H109.419V81.3541H135.679V87.118H113.795V104.41H135.679V110.174H109.419Z" fill="white"/>
<path d="M144.433 110.174V104.41H140.056V87.118H144.433V81.3541H166.316V87.118H170.693V104.41H166.316V110.174H144.433ZM148.809 104.41H161.94V87.118H148.809V104.41Z" fill="white"/>
<path d="M179.447 110.174V104.41H175.07V69.8262H183.823V81.3541H201.33V87.118H205.707V104.41H201.33V110.174H179.447ZM183.823 104.41H196.954V87.118H183.823V104.41Z" fill="white"/>
<path d="M214.46 110.174V104.41H210.084V87.118H214.46V81.3541H236.344V87.118H240.721V98.6459H218.837V104.41H236.344V110.174H214.46ZM218.837 92.882H231.967V87.118H218.837V92.882Z" fill="white"/>
<path d="M258.228 87.118H262.605V92.882H258.228V110.174H249.474V81.3541H258.228V87.118ZM275.735 81.3541V87.118H262.605V81.3541H275.735Z" fill="white"/>
<path d="M293.242 110.174V87.118H284.488V81.3541H293.242V69.8262H301.995V81.3541H310.749V87.118H301.995V110.174H293.242Z" fill="white"/>
<path d="M319.502 110.174V104.41H315.126V98.6459H319.502V92.882H337.009V87.118H319.502V81.3541H341.386V87.118H345.763V110.174H319.502ZM323.879 104.41H337.009V98.6459H323.879V104.41Z" fill="white"/>
<path d="M407.037 75.5901H402.661V69.8262H407.037V75.5901ZM415.791 87.118V98.6459H393.907V104.41H411.414V110.174H389.53V104.41H385.154V87.118H389.53V81.3541H398.284V75.5901H402.661V81.3541H411.414V87.118H415.791ZM407.037 87.118H393.907V92.882H407.037V87.118Z" fill="white"/>
<path d="M459.558 110.174V104.41H455.181V81.3541H463.935V104.41H477.065V81.3541H485.819V110.174H459.558Z" fill="white"/>
<path d="M490.195 110.174V81.3541H516.456V87.118H520.833V110.174H512.079V87.118H507.702V110.174H498.949V87.118H494.572V110.174H490.195Z" fill="white"/>
<path d="M573.354 110.174V87.118H564.6V81.3541H573.354V75.5901H577.73V69.8262H590.861V75.5901H582.107V81.3541H590.861V87.118H582.107V110.174H573.354Z" fill="white"/>
<path d="M608.367 87.118H612.744V92.882H608.367V110.174H599.614V81.3541H608.367V87.118ZM625.874 81.3541V87.118H612.744V81.3541H625.874Z" fill="white"/>
<path d="M634.628 110.174V104.41H630.251V98.6459H634.628V92.882H652.135V87.118H634.628V81.3541H656.512V87.118H660.888V110.174H634.628ZM639.005 104.41H652.135V98.6459H639.005V104.41Z" fill="white"/>
<path d="M669.642 115.938V110.174H687.149V104.41H669.642V98.6459H665.265V87.118H669.642V81.3541H695.902V110.174H691.526V115.938H669.642ZM674.019 98.6459H687.149V87.118H674.019V98.6459Z" fill="white"/>
<path d="M700.279 110.174V81.3541H726.54V87.118H730.916V110.174H722.163V87.118H717.786V110.174H709.033V87.118H704.656V110.174H700.279Z" fill="white"/>
<path d="M739.67 110.174V104.41H735.293V87.118H739.67V81.3541H761.554V87.118H765.93V98.6459H744.047V104.41H761.554V110.174H739.67ZM744.047 92.882H757.177V87.118H744.047V92.882Z" fill="white"/>
<path d="M770.307 110.174V81.3541H796.568V87.118H800.944V110.174H792.191V87.118H779.061V110.174H770.307Z" fill="white"/>
<path d="M818.451 110.174V87.118H809.698V81.3541H818.451V69.8262H827.205V81.3541H835.958V87.118H827.205V110.174H818.451Z" fill="white"/>
<path d="M844.712 110.174V104.41H840.335V87.118H844.712V81.3541H866.595V87.118H870.972V104.41H866.595V110.174H844.712ZM849.088 104.41H862.219V87.118H849.088V104.41Z" fill="white"/>
<path d="M4.37674 180V174.236H0V156.944H4.37674V151.18H21.8837V139.652H30.6372V180H4.37674ZM8.75349 174.236H21.8837V156.944H8.75349V174.236Z" fill="white"/>
<path d="M39.3907 180V174.236H35.014V156.944H39.3907V151.18H61.2744V156.944H65.6512V168.472H43.7674V174.236H61.2744V180H39.3907ZM43.7674 162.708H56.8977V156.944H43.7674V162.708Z" fill="white"/>
<path d="M109.419 180V174.236H105.042V151.18H113.795V174.236H126.926V151.18H135.679V180H109.419Z" fill="white"/>
<path d="M140.056 180V151.18H166.316V156.944H170.693V180H161.94V156.944H157.563V180H148.809V156.944H144.433V180H140.056Z" fill="white"/>
<path d="M210.084 180V174.236H231.967V168.472H214.46V162.708H210.084V156.944H214.46V151.18H236.344V156.944H218.837V162.708H236.344V168.472H240.721V174.236H236.344V180H210.084Z" fill="white"/>
<path d="M249.474 180V174.236H245.098V156.944H249.474V151.18H271.358V156.944H275.735V174.236H271.358V180H249.474ZM253.851 174.236H266.981V156.944H253.851V174.236Z" fill="white"/>
<path d="M280.112 180V151.18H306.372V156.944H310.749V180H301.995V156.944H288.865V180H280.112Z" fill="white"/>
<path d="M315.126 180V139.652H323.879V151.18H341.386V156.944H345.763V180H337.009V156.944H323.879V180H315.126Z" fill="white"/>
<path d="M354.516 180V174.236H350.14V156.944H354.516V151.18H376.4V156.944H380.777V174.236H376.4V180H354.516ZM358.893 174.236H372.023V156.944H358.893V174.236Z" fill="white"/>
<path d="M420.167 180V151.18H446.428V156.944H450.805V180H442.051V156.944H437.674V180H428.921V156.944H424.544V180H420.167Z" fill="white"/>
<path d="M459.558 180V174.236H455.181V168.472H459.558V162.708H477.065V156.944H459.558V151.18H481.442V156.944H485.819V180H459.558ZM463.935 174.236H477.065V168.472H463.935V174.236Z" fill="white"/>
<path d="M503.326 145.416V139.652H512.079V145.416H503.326ZM494.572 180V174.236H503.326V156.944H498.949V151.18H512.079V174.236H520.833V180H494.572Z" fill="white"/>
<path d="M529.586 180V174.236H525.209V156.944H529.586V151.18H551.47V156.944H555.847V174.236H551.47V180H529.586ZM533.963 174.236H547.093V156.944H533.963V174.236Z" fill="white"/>
<path d="M573.354 156.944H577.73V162.708H573.354V180H564.6V151.18H573.354V156.944ZM590.861 151.18V156.944H577.73V151.18H590.861Z" fill="white"/>
</svg>
