<svg width="114" height="75" viewBox="0 0 114 75" fill="none" xmlns="http://www.w3.org/2000/svg">
<path d="M46.9211 52.8558C52.3305 50.2516 56.7343 45.7664 59.4002 40.1461C62.0661 34.5258 62.8333 28.1092 61.5742 21.9634C60.3151 15.8177 57.1057 10.3132 52.4796 6.36565C47.8536 2.41804 42.0898 0.265212 36.1469 0.265212C30.204 0.265212 24.4402 2.41804 19.8142 6.36565C15.1882 10.3132 11.9787 15.8177 10.7196 21.9634C9.46054 28.1092 10.2277 34.5258 12.8936 40.1461C15.5595 45.7664 19.9633 50.2516 25.3727 52.8558C15.0628 55.6835 6.12518 62.4893 0.316519 71.9357C0.179032 72.152 0.0835339 72.395 0.0355748 72.6506C-0.0123842 72.9062 -0.0118473 73.1694 0.0371544 73.4248C0.0861562 73.6802 0.182645 73.9227 0.321013 74.1383C0.459381 74.3539 0.636867 74.5382 0.843155 74.6806C1.04944 74.823 1.28042 74.9206 1.52265 74.9676C1.76489 75.0147 2.01355 75.0104 2.25419 74.9549C2.49483 74.8994 2.72265 74.7938 2.92439 74.6443C3.12614 74.4949 3.29779 74.3044 3.42938 74.0841C6.97311 68.3177 11.8219 63.5793 17.5355 60.2991C23.2491 57.0188 29.6465 55.3007 36.1469 55.3007C42.6473 55.3007 49.0447 57.0188 54.7583 60.2991C60.4719 63.5793 65.3207 68.3177 68.8644 74.0841C68.996 74.3044 69.1677 74.4949 69.3694 74.6443C69.5712 74.7938 69.799 74.8994 70.0396 74.9549C70.2803 75.0104 70.5289 75.0147 70.7712 74.9676C71.0134 74.9206 71.2444 74.823 71.4507 74.6806C71.6569 74.5382 71.8344 74.3539 71.9728 74.1383C72.1112 73.9227 72.2077 73.6802 72.2567 73.4248C72.3057 73.1694 72.3062 72.9062 72.2582 72.6506C72.2103 72.395 72.1148 72.152 71.9773 71.9357C66.1686 62.4893 57.231 55.6835 46.9211 52.8558ZM13.8458 27.7829C13.8458 23.1156 15.1538 18.5532 17.6042 14.6725C20.0547 10.7918 23.5377 7.7672 27.6127 5.98112C31.6876 4.19504 36.1716 3.72772 40.4976 4.63826C44.8236 5.54879 48.7973 7.79629 51.9161 11.0965C55.035 14.3968 57.159 18.6015 58.0195 23.1791C58.88 27.7567 58.4383 32.5014 56.7504 36.8134C55.0625 41.1254 52.2041 44.8109 48.5367 47.4039C44.8693 49.9969 40.5576 51.3809 36.1469 51.3809C30.2342 51.3744 24.5654 48.8861 20.3845 44.462C16.2035 40.0379 13.852 34.0394 13.8458 27.7829ZM112.342 74.6593C111.929 74.9432 111.427 75.042 110.945 74.9342C110.463 74.8263 110.042 74.5206 109.773 74.0841C106.232 68.3107 101.38 63.568 95.6605 60.2892C89.9412 57.0104 83.5369 55.2999 77.0322 55.3139C76.5393 55.3139 76.0666 55.1067 75.7181 54.7379C75.3696 54.3691 75.1738 53.8689 75.1738 53.3474C75.1738 52.8258 75.3696 52.3256 75.7181 51.9568C76.0666 51.5881 76.5393 51.3809 77.0322 51.3809C80.3171 51.379 83.561 50.6093 86.532 49.1267C89.5031 47.6442 92.128 45.4854 94.219 42.8047C96.3101 40.1241 97.8157 36.9877 98.6282 33.6199C99.4407 30.252 99.54 26.7358 98.9192 23.3225C98.2983 19.9093 96.9725 16.6834 95.0366 13.8753C93.1006 11.0672 90.6023 8.74632 87.7203 7.07857C84.8383 5.41081 81.6436 4.43735 78.3648 4.22777C75.0859 4.01819 71.8037 4.57766 68.7529 5.86619C68.5263 5.96303 68.2838 6.01168 68.0394 6.00937C67.7949 6.00706 67.5533 5.95382 67.3283 5.8527C67.1033 5.75158 66.8994 5.60456 66.7281 5.42003C66.5568 5.23551 66.4215 5.01708 66.33 4.77724C66.2385 4.5374 66.1925 4.28082 66.1947 4.02218C66.1969 3.76353 66.2472 3.50787 66.3428 3.2698C66.4383 3.03172 66.5773 2.8159 66.7517 2.63464C66.926 2.45339 67.1325 2.31026 67.3591 2.21341C73.705 -0.655105 80.8679 -0.738638 87.2719 1.98119C93.676 4.70102 98.7968 10.0014 101.508 16.7164C104.218 23.4313 104.297 31.0107 101.727 37.7873C99.1567 44.5638 94.1477 49.9823 87.8018 52.8508C98.1154 55.6847 107.054 62.4998 112.858 71.9554C113.124 72.3876 113.22 72.9133 113.123 73.4191C113.027 73.9249 112.746 74.3704 112.342 74.6593Z" fill="#5587A4"/>
</svg>
