<svg width="64" height="82" viewBox="0 0 64 82" fill="none" xmlns="http://www.w3.org/2000/svg">
<path d="M32 18.2413C29.2876 18.2413 26.6361 19.0329 24.3808 20.5161C22.1254 21.9994 20.3677 24.1075 19.3297 26.574C18.2916 29.0405 18.0201 31.7546 18.5492 34.373C19.0784 36.9914 20.3846 39.3966 22.3025 41.2843C24.2205 43.1721 26.6642 44.4577 29.3245 44.9785C31.9848 45.4994 34.7423 45.232 37.2482 44.2104C39.7542 43.1887 41.8961 41.4586 43.403 39.2388C44.91 37.0191 45.7143 34.4093 45.7143 31.7396C45.7143 28.1596 44.2694 24.7263 41.6975 22.1948C39.1255 19.6634 35.6373 18.2413 32 18.2413ZM32 42.2383C29.8903 42.2383 27.828 41.6225 26.0739 40.4689C24.3198 39.3153 22.9526 37.6756 22.1453 35.7573C21.3379 33.8389 21.1267 31.7279 21.5383 29.6914C21.9499 27.6548 22.9658 25.7842 24.4575 24.3159C25.9493 22.8476 27.8499 21.8477 29.919 21.4426C31.9882 21.0375 34.1329 21.2454 36.082 22.0401C38.031 22.8347 39.6969 24.1803 40.869 25.9068C42.0411 27.6333 42.6667 29.6631 42.6667 31.7396C42.6667 33.1183 42.3908 34.4835 41.8547 35.7573C41.3187 37.031 40.533 38.1884 39.5425 39.1633C38.552 40.1382 37.3761 40.9115 36.082 41.4391C34.7878 41.9667 33.4008 42.2383 32 42.2383ZM32 0.24353C23.5159 0.252463 15.3818 3.57366 9.38261 9.47838C3.38341 15.3831 0.00907557 23.3891 0 31.7396C0 43.1457 5.3981 55.2829 15.619 66.8427C20.2429 72.1015 25.447 76.8376 31.1352 80.9634C31.3911 81.1392 31.6956 81.2335 32.0076 81.2335C32.3197 81.2335 32.6242 81.1392 32.88 80.9634C38.5629 76.8367 43.7619 72.1007 48.381 66.8427C58.5943 55.2829 64 43.1457 64 31.7396C63.9909 23.3891 60.6166 15.3831 54.6174 9.47838C48.6182 3.57366 40.4841 0.252463 32 0.24353ZM46.1333 64.8217C41.876 69.6207 37.1413 73.9881 32 77.8588C26.858 73.9834 22.1233 69.6109 17.8667 64.8067C11.1048 57.1614 3.04762 45.2004 3.04762 31.7396C3.04762 24.1819 6.09795 16.9337 11.5276 11.5896C16.9572 6.24545 24.3214 3.24315 32 3.24315C39.6786 3.24315 47.0428 6.24545 52.4724 11.5896C57.9021 16.9337 60.9524 24.1819 60.9524 31.7396C60.9524 45.2004 52.8952 57.1614 46.1333 64.8217Z" fill="#5587A4"/>
</svg>
