<svg width="98" height="71" viewBox="0 0 98 71" fill="none" xmlns="http://www.w3.org/2000/svg">
<path d="M10.0606 35.2845C16.8448 38.398 16.8448 45.7411 16.8448 51.9304C16.8448 61.3126 17.4133 67.063 28.6362 67.063C29.083 67.063 29.5114 67.2224 29.8273 67.5062C30.1432 67.79 30.3207 68.1749 30.3207 68.5762C30.3207 68.9776 30.1432 69.3625 29.8273 69.6463C29.5114 69.9301 29.083 70.0895 28.6362 70.0895C13.4759 70.0895 13.4759 60.0225 13.4759 51.9304C13.4759 42.5481 12.9073 36.7978 1.68448 36.7978C1.23773 36.7978 0.809275 36.6383 0.493373 36.3545C0.177472 36.0707 0 35.6858 0 35.2845C0 34.8831 0.177472 34.4982 0.493373 34.2145C0.809275 33.9307 1.23773 33.7712 1.68448 33.7712C12.9073 33.7712 13.4759 28.0208 13.4759 18.6386C13.4759 10.5465 13.4759 0.479492 28.6362 0.479492C29.083 0.479492 29.5114 0.638925 29.8273 0.922716C30.1432 1.20651 30.3207 1.59141 30.3207 1.99275C30.3207 2.39409 30.1432 2.779 29.8273 3.06279C29.5114 3.34658 29.083 3.50601 28.6362 3.50601C17.4133 3.50601 16.8448 9.25641 16.8448 18.6386C16.8448 24.8279 16.8448 32.171 10.0606 35.2845ZM96.0155 33.7712C84.7926 33.7712 84.2241 28.0208 84.2241 18.6386C84.2241 10.5465 84.2241 0.479492 69.0638 0.479492C68.617 0.479492 68.1886 0.638925 67.8727 0.922716C67.5568 1.20651 67.3793 1.59141 67.3793 1.99275C67.3793 2.39409 67.5568 2.779 67.8727 3.06279C68.1886 3.34658 68.617 3.50601 69.0638 3.50601C80.2867 3.50601 80.8552 9.25641 80.8552 18.6386C80.8552 24.8279 80.8552 32.171 87.6394 35.2845C80.8552 38.398 80.8552 45.7411 80.8552 51.9304C80.8552 61.3126 80.2867 67.063 69.0638 67.063C68.617 67.063 68.1886 67.2224 67.8727 67.5062C67.5568 67.79 67.3793 68.1749 67.3793 68.5762C67.3793 68.9776 67.5568 69.3625 67.8727 69.6463C68.1886 69.9301 68.617 70.0895 69.0638 70.0895C84.2241 70.0895 84.2241 60.0225 84.2241 51.9304C84.2241 42.5481 84.7926 36.7978 96.0155 36.7978C96.4623 36.7978 96.8907 36.6383 97.2066 36.3545C97.5225 36.0707 97.7 35.6858 97.7 35.2845C97.7 34.8831 97.5225 34.4982 97.2066 34.2145C96.8907 33.9307 96.4623 33.7712 96.0155 33.7712Z" fill="#5587A4"/>
</svg>
